<?xml version="1.0" encoding="UTF-8" standalone="no"?>
<!DOCTYPE svg PUBLIC "-//W3C//DTD SVG 1.1//EN"
 "http://www.w3.org/Graphics/SVG/1.1/DTD/svg11.dtd">
<!-- Generated by graphviz version 2.38.0 (20140413.2041)
 -->
<!-- Title: HSDFG Pages: 1 -->
<svg width="350pt" height="241pt"
 viewBox="0.00 0.00 350.00 241.22" xmlns="http://www.w3.org/2000/svg" xmlns:xlink="http://www.w3.org/1999/xlink">
<g id="graph0" class="graph" transform="scale(1 1) rotate(0) translate(4 237.22)">
<title>HSDFG</title>
<polygon fill="white" stroke="none" points="-4,4 -4,-237.22 346,-237.22 346,4 -4,4"/>
<!-- a_0 -->
<g id="node1" class="node"><title>a_0</title>
<g id="a_node1"><a xlink:href="\ref Actor" xlink:title="a_0">
<ellipse fill="none" stroke="black" cx="171" cy="-206.35" rx="27" ry="26.7407"/>
<text text-anchor="middle" x="171" y="-210.15" font-family="Times New Roman,serif" font-size="14.00">a</text>
<text text-anchor="middle" x="171" y="-195.15" font-family="Times New Roman,serif" font-size="14.00">0</text>
</a>
</g>
</g>
<!-- b_5 -->
<g id="node6" class="node"><title>b_5</title>
<g id="a_node6"><a xlink:href="\ref Actor" xlink:title="b_5">
<ellipse fill="none" stroke="black" cx="99" cy="-116.61" rx="27" ry="26.7407"/>
<text text-anchor="middle" x="99" y="-120.41" font-family="Times New Roman,serif" font-size="14.00">b</text>
<text text-anchor="middle" x="99" y="-105.41" font-family="Times New Roman,serif" font-size="14.00">5</text>
</a>
</g>
</g>
<!-- a_0&#45;&gt;b_5 -->
<g id="edge1" class="edge"><title>a_0&#45;&gt;b_5</title>
<path fill="none" stroke="black" d="M154.301,-185C144.759,-173.373 132.649,-158.615 122.195,-145.876"/>
<polygon fill="black" stroke="black" points="124.658,-143.36 115.609,-137.85 119.247,-147.8 124.658,-143.36"/>
<text text-anchor="middle" x="124.625" y="-138.475" font-family="Times New Roman,serif" font-size="14.00">2 </text>
<text text-anchor="middle" x="145.285" y="-176.975" font-family="Times New Roman,serif" font-size="14.00">2 </text>
</g>
<!-- b_6 -->
<g id="node7" class="node"><title>b_6</title>
<g id="a_node7"><a xlink:href="\ref Actor" xlink:title="b_6">
<ellipse fill="none" stroke="black" cx="243" cy="-116.61" rx="27" ry="26.7407"/>
<text text-anchor="middle" x="243" y="-120.41" font-family="Times New Roman,serif" font-size="14.00">b</text>
<text text-anchor="middle" x="243" y="-105.41" font-family="Times New Roman,serif" font-size="14.00">6</text>
</a>
</g>
</g>
<!-- a_0&#45;&gt;b_6 -->
<g id="edge2" class="edge"><title>a_0&#45;&gt;b_6</title>
<path fill="none" stroke="black" d="M187.699,-185C197.241,-173.373 209.351,-158.615 219.805,-145.876"/>
<polygon fill="black" stroke="black" points="222.753,-147.8 226.391,-137.85 217.342,-143.36 222.753,-147.8"/>
<text text-anchor="middle" x="223.909" y="-143.837" font-family="Times New Roman,serif" font-size="14.00">2 </text>
<text text-anchor="middle" x="190.181" y="-171.613" font-family="Times New Roman,serif" font-size="14.00">2 </text>
</g>
<!-- d_1 -->
<g id="node2" class="node"><title>d_1</title>
<g id="a_node2"><a xlink:href="\ref Actor" xlink:title="d_1">
<ellipse fill="none" stroke="black" cx="27" cy="-206.35" rx="27" ry="26.7407"/>
<text text-anchor="middle" x="27" y="-210.15" font-family="Times New Roman,serif" font-size="14.00">d</text>
<text text-anchor="middle" x="27" y="-195.15" font-family="Times New Roman,serif" font-size="14.00">1</text>
</a>
</g>
</g>
<!-- d_1&#45;&gt;b_5 -->
<g id="edge3" class="edge"><title>d_1&#45;&gt;b_5</title>
<path fill="none" stroke="black" d="M43.6992,-185C53.2409,-173.373 65.3509,-158.615 75.8046,-145.876"/>
<polygon fill="black" stroke="black" points="78.7534,-147.8 82.3913,-137.85 73.3421,-143.36 78.7534,-147.8"/>
<text text-anchor="middle" x="79.9091" y="-143.837" font-family="Times New Roman,serif" font-size="14.00">2 </text>
<text text-anchor="middle" x="46.1815" y="-171.613" font-family="Times New Roman,serif" font-size="14.00">2 </text>
</g>
<!-- d_2 -->
<g id="node3" class="node"><title>d_2</title>
<g id="a_node3"><a xlink:href="\ref Actor" xlink:title="d_2">
<ellipse fill="none" stroke="black" cx="99" cy="-206.35" rx="27" ry="26.7407"/>
<text text-anchor="middle" x="99" y="-210.15" font-family="Times New Roman,serif" font-size="14.00">d</text>
<text text-anchor="middle" x="99" y="-195.15" font-family="Times New Roman,serif" font-size="14.00">2</text>
</a>
</g>
</g>
<!-- d_2&#45;&gt;b_5 -->
<g id="edge4" class="edge"><title>d_2&#45;&gt;b_5</title>
<path fill="none" stroke="black" d="M99,-179.025C99,-171.059 99,-162.168 99,-153.679"/>
<polygon fill="black" stroke="black" points="102.5,-153.614 99,-143.614 95.5001,-153.614 102.5,-153.614"/>
<text text-anchor="middle" x="103.226" y="-148.977" font-family="Times New Roman,serif" font-size="14.00">2 </text>
<text text-anchor="middle" x="94.7738" y="-166.262" font-family="Times New Roman,serif" font-size="14.00">2 </text>
</g>
<!-- d_3 -->
<g id="node4" class="node"><title>d_3</title>
<g id="a_node4"><a xlink:href="\ref Actor" xlink:title="d_3">
<ellipse fill="none" stroke="black" cx="243" cy="-206.35" rx="27" ry="26.7407"/>
<text text-anchor="middle" x="243" y="-210.15" font-family="Times New Roman,serif" font-size="14.00">d</text>
<text text-anchor="middle" x="243" y="-195.15" font-family="Times New Roman,serif" font-size="14.00">3</text>
</a>
</g>
</g>
<!-- d_3&#45;&gt;b_6 -->
<g id="edge5" class="edge"><title>d_3&#45;&gt;b_6</title>
<path fill="none" stroke="black" d="M243,-179.025C243,-171.059 243,-162.168 243,-153.679"/>
<polygon fill="black" stroke="black" points="246.5,-153.614 243,-143.614 239.5,-153.614 246.5,-153.614"/>
<text text-anchor="middle" x="247.226" y="-148.977" font-family="Times New Roman,serif" font-size="14.00">2 </text>
<text text-anchor="middle" x="238.774" y="-166.262" font-family="Times New Roman,serif" font-size="14.00">2 </text>
</g>
<!-- d_4 -->
<g id="node5" class="node"><title>d_4</title>
<g id="a_node5"><a xlink:href="\ref Actor" xlink:title="d_4">
<ellipse fill="none" stroke="black" cx="315" cy="-206.35" rx="27" ry="26.7407"/>
<text text-anchor="middle" x="315" y="-210.15" font-family="Times New Roman,serif" font-size="14.00">d</text>
<text text-anchor="middle" x="315" y="-195.15" font-family="Times New Roman,serif" font-size="14.00">4</text>
</a>
</g>
</g>
<!-- d_4&#45;&gt;b_6 -->
<g id="edge6" class="edge"><title>d_4&#45;&gt;b_6</title>
<path fill="none" stroke="black" d="M298.301,-185C288.759,-173.373 276.649,-158.615 266.195,-145.876"/>
<polygon fill="black" stroke="black" points="268.658,-143.36 259.609,-137.85 263.247,-147.8 268.658,-143.36"/>
<text text-anchor="middle" x="268.625" y="-138.475" font-family="Times New Roman,serif" font-size="14.00">2 </text>
<text text-anchor="middle" x="289.285" y="-176.975" font-family="Times New Roman,serif" font-size="14.00">2 </text>
</g>
<!-- c_7 -->
<g id="node8" class="node"><title>c_7</title>
<g id="a_node8"><a xlink:href="\ref Actor" xlink:title="c_7">
<ellipse fill="none" stroke="black" cx="99" cy="-26.8701" rx="27" ry="26.7407"/>
<text text-anchor="middle" x="99" y="-30.6701" font-family="Times New Roman,serif" font-size="14.00">c</text>
<text text-anchor="middle" x="99" y="-15.6701" font-family="Times New Roman,serif" font-size="14.00">7</text>
</a>
</g>
</g>
<!-- b_5&#45;&gt;c_7 -->
<g id="edge7" class="edge"><title>b_5&#45;&gt;c_7</title>
<path fill="none" stroke="black" d="M99,-89.2852C99,-81.3185 99,-72.4275 99,-63.9391"/>
<polygon fill="black" stroke="black" points="102.5,-63.874 99,-53.874 95.5001,-63.8741 102.5,-63.874"/>
<text text-anchor="middle" x="103.226" y="-59.2371" font-family="Times New Roman,serif" font-size="14.00">2 </text>
<text text-anchor="middle" x="94.7738" y="-76.5222" font-family="Times New Roman,serif" font-size="14.00">2 </text>
</g>
<!-- c_8 -->
<g id="node9" class="node"><title>c_8</title>
<g id="a_node9"><a xlink:href="\ref Actor" xlink:title="c_8">
<ellipse fill="none" stroke="black" cx="243" cy="-26.8701" rx="27" ry="26.7407"/>
<text text-anchor="middle" x="243" y="-30.6701" font-family="Times New Roman,serif" font-size="14.00">c</text>
<text text-anchor="middle" x="243" y="-15.6701" font-family="Times New Roman,serif" font-size="14.00">8</text>
</a>
</g>
</g>
<!-- b_6&#45;&gt;c_8 -->
<g id="edge8" class="edge"><title>b_6&#45;&gt;c_8</title>
<path fill="none" stroke="black" d="M243,-89.2852C243,-81.3185 243,-72.4275 243,-63.9391"/>
<polygon fill="black" stroke="black" points="246.5,-63.874 243,-53.874 239.5,-63.8741 246.5,-63.874"/>
<text text-anchor="middle" x="247.226" y="-59.2371" font-family="Times New Roman,serif" font-size="14.00">2 </text>
<text text-anchor="middle" x="238.774" y="-76.5222" font-family="Times New Roman,serif" font-size="14.00">2 </text>
</g>
</g>
</svg>
