<?xml version="1.0" encoding="UTF-8" standalone="no"?>
<!DOCTYPE svg PUBLIC "-//W3C//DTD SVG 1.1//EN"
 "http://www.w3.org/Graphics/SVG/1.1/DTD/svg11.dtd">
<!-- Generated by graphviz version 2.38.0 (20140413.2041)
 -->
<!-- Title: SDFG Pages: 1 -->
<svg width="134pt" height="241pt"
 viewBox="0.00 0.00 134.00 241.22" xmlns="http://www.w3.org/2000/svg"
 xmlns:xlink="http://www.w3.org/1999/xlink">
<g id="graph0" class="graph" transform="scale(1 1) rotate(0) translate(4 237.22)">
<title>SDFG</title>
<polygon fill="white" stroke="none" points="-4,4 -4,-237.22 130,-237.22 130,4 -4,4"/>
<!-- a_0 -->
<g id="node1" class="node"><title>a_0</title>
<g id="a_node1"><a xlink:href="\ref Actor" xlink:title="a_0">
<ellipse fill="white" stroke="black" cx="27" cy="-206.35" rx="27" ry="26.7407"/>
<text text-anchor="middle" x="27" y="-210.15" font-family="Times New Roman,serif" font-size="14.00">a</text>
<text text-anchor="middle" x="27" y="-195.15" font-family="Times New Roman,serif" font-size="14.00">0</text>
</a>
</g>
</g>
<!-- b_2 -->
<g id="node3" class="node"><title>b_2</title>
<g id="a_node3"><a xlink:href="\ref Actor" xlink:title="b_2">
<ellipse fill="white" stroke="black" cx="63" cy="-116.61" rx="27" ry="26.7407"/>
<text text-anchor="middle" x="63" y="-120.41" font-family="Times New Roman,serif" font-size="14.00">b</text>
<text text-anchor="middle" x="63" y="-105.41" font-family="Times New Roman,serif" font-size="14.00">2</text>
</a>
</g>
</g>
<!-- a_0&#45;&gt;b_2 -->
<g id="edge1" class="edge"><title>a_0&#45;&gt;b_2</title>
<path fill="none" stroke="black" d="M37.028,-180.91C40.7729,-171.783 45.0947,-161.249 49.1249,-151.427"/>
<polygon fill="black" stroke="black" points="52.4678,-152.5 53.0258,-141.92 45.9917,-149.843 52.4678,-152.5"/>
<text text-anchor="middle" x="53.4954" y="-148.209" font-family="Times New Roman,serif" font-size="14.00">2 </text>
<text text-anchor="middle" x="36.5584" y="-167.221" font-family="Times New Roman,serif" font-size="14.00">4 </text>
</g>
<!-- d_1 -->
<g id="node2" class="node"><title>d_1</title>
<g id="a_node2"><a xlink:href="\ref Actor" xlink:title="d_1">
<ellipse fill="white" stroke="black" cx="99" cy="-206.35" rx="27" ry="26.7407"/>
<text text-anchor="middle" x="99" y="-210.15" font-family="Times New Roman,serif" font-size="14.00">d</text>
<text text-anchor="middle" x="99" y="-195.15" font-family="Times New Roman,serif" font-size="14.00">1</text>
</a>
</g>
</g>
<!-- d_1&#45;&gt;b_2 -->
<g id="edge2" class="edge"><title>d_1&#45;&gt;b_2</title>
<path fill="none" stroke="black" d="M88.972,-180.91C85.2271,-171.783 80.9053,-161.249 76.8751,-151.427"/>
<polygon fill="black" stroke="black" points="80.0083,-149.843 72.9742,-141.92 73.5322,-152.5 80.0083,-149.843"/>
<text text-anchor="middle" x="80.3244" y="-145" font-family="Times New Roman,serif" font-size="14.00">4 </text>
<text text-anchor="middle" x="81.6218" y="-170.429" font-family="Times New Roman,serif" font-size="14.00">2 </text>
</g>
<!-- c_3 -->
<g id="node4" class="node"><title>c_3</title>
<g id="a_node4"><a xlink:href="\ref Actor" xlink:title="c_3">
<ellipse fill="white" stroke="black" cx="63" cy="-26.8701" rx="27" ry="26.7407"/>
<text text-anchor="middle" x="63" y="-30.6701" font-family="Times New Roman,serif" font-size="14.00">c</text>
<text text-anchor="middle" x="63" y="-15.6701" font-family="Times New Roman,serif" font-size="14.00">3</text>
</a>
</g>
</g>
<!-- b_2&#45;&gt;c_3 -->
<g id="edge3" class="edge"><title>b_2&#45;&gt;c_3</title>
<path fill="none" stroke="black" d="M63,-89.2852C63,-81.3185 63,-72.4275 63,-63.9391"/>
<polygon fill="black" stroke="black" points="66.5001,-63.874 63,-53.874 59.5001,-63.8741 66.5001,-63.874"/>
<text text-anchor="middle" x="67.2262" y="-59.2371" font-family="Times New Roman,serif" font-size="14.00">2 </text>
<text text-anchor="middle" x="58.7738" y="-76.5222" font-family="Times New Roman,serif" font-size="14.00">2 </text>
</g>
</g>
</svg>
